<svg width="320" height="64" viewBox="0 0 320 64" fill="none" xmlns="http://www.w3.org/2000/svg">
<g clip-path="url(#clip0_1_632)">
<path d="M19.295 26.8934L31.7239 14.465L44.1594 26.8999L51.3914 19.668L31.7239 0L12.063 19.6614L19.295 26.8934Z" fill="white" fill-opacity="0.5"/>
<path d="M14.1877 31.999L6.95587 24.7671L-0.27635 31.9993L6.95552 39.2312L14.1877 31.999Z" fill="white" fill-opacity="0.5"/>
<path d="M19.295 37.1066L31.7239 49.535L44.1589 37.1006L51.3949 44.3285L51.3914 44.3326L31.7239 64L12.0625 44.3391L12.0524 44.329L19.295 37.1066Z" fill="white" fill-opacity="0.5"/>
<path d="M56.4926 39.2344L63.7248 32.0022L56.4929 24.7703L49.2607 32.0026L56.4926 39.2344Z" fill="white" fill-opacity="0.5"/>
<path d="M39.0595 31.9964H39.0625L31.7239 24.6577L26.3005 30.0811H26.3L25.6773 30.7043L24.3918 31.9898L24.3817 31.9999L24.3918 32.0105L31.7239 39.3426L39.0625 32.0039L39.0661 31.9999L39.0595 31.9964Z" fill="white" fill-opacity="0.5"/>
<path d="M74.9989 15.5078H90.7281C94.632 15.5078 97.584 16.5097 99.5847 18.5134C101.133 20.0653 101.907 21.9886 101.907 24.2831V24.3801C101.907 25.3496 101.787 26.2064 101.546 26.9495C101.305 27.6936 100.984 28.3633 100.582 28.9613C100.181 29.5598 99.7152 30.085 99.1854 30.5369C98.6552 30.9898 98.0855 31.3781 97.4754 31.7006C99.4377 32.4446 100.982 33.4541 102.109 34.7309C103.234 36.0083 103.798 37.778 103.798 40.0401V40.1366C103.798 41.6885 103.5 43.0457 102.903 44.2098C102.306 45.3729 101.45 46.343 100.337 47.1189C99.2233 47.8948 97.8843 48.4761 96.3193 48.8643C94.7543 49.252 93.02 49.4456 91.1168 49.4456H74.9989V15.5078ZM89.1556 29.2282C90.8045 29.2282 92.1137 28.9462 93.0827 28.38C94.0522 27.8144 94.537 26.901 94.537 25.6408V25.5437C94.537 24.413 94.1164 23.5486 93.2763 22.9501C92.4357 22.3521 91.2235 22.0528 89.6403 22.0528H82.2708V29.2282H89.1556V29.2282ZM91.1436 42.9011C92.792 42.9011 94.084 42.6029 95.0222 42.0044C95.9594 41.4064 96.4285 40.4768 96.4285 39.2161V39.1196C96.4285 37.9883 95.9917 37.0916 95.1193 36.4284C94.2463 35.7667 92.8405 35.4351 90.901 35.4351H82.2708V42.9016H91.1436V42.9011Z" fill="white" fill-opacity="0.5"/>
<path d="M113.166 15.5078H120.633V49.4466H113.166V15.5078Z" fill="white" fill-opacity="0.5"/>
<path d="M131.942 15.5078H138.826L154.729 36.4046V15.5078H162.098V49.4466H155.747L139.311 27.8715V49.4466H131.942V15.5078Z" fill="white" fill-opacity="0.5"/>
<path d="M184.704 15.2656H191.588L206.134 49.4466H198.327L195.224 41.835H180.873L177.77 49.4466H170.157L184.704 15.2656ZM192.558 35.2404L188.048 24.235L183.54 35.2404H192.558Z" fill="white" fill-opacity="0.5"/>
<path d="M214.194 15.5078H221.079L236.981 36.4046V15.5078H244.351V49.4466H238L221.563 27.8715V49.4466H214.194V15.5078V15.5078Z" fill="white" fill-opacity="0.5"/>
<path d="M271.222 50.028C268.732 50.028 266.422 49.5751 264.288 48.6708C262.155 47.7665 260.313 46.5295 258.761 44.9615C257.21 43.394 255.997 41.5434 255.125 39.4103C254.252 37.2766 253.816 34.9979 253.816 32.5736V32.477C253.816 30.0527 254.252 27.7826 255.125 25.6651C255.997 23.5481 257.21 21.6894 258.761 20.0896C260.312 18.4897 262.171 17.2285 264.336 16.3075C266.501 15.3865 268.895 14.926 271.513 14.926C273.095 14.926 274.542 15.0559 275.851 15.3137C277.16 15.573 278.347 15.9279 279.415 16.3803C280.482 16.8332 281.467 17.3827 282.373 18.0287C283.276 18.6757 284.118 19.3864 284.894 20.1624L280.143 25.6408C278.816 24.4453 277.467 23.5072 276.094 22.8288C274.72 22.1504 273.177 21.8107 271.464 21.8107C270.041 21.8107 268.724 22.0857 267.513 22.6352C266.301 23.1847 265.258 23.9439 264.385 24.9134C263.513 25.8829 262.834 27.0066 262.348 28.283C261.865 29.5604 261.622 30.9257 261.622 32.38V32.4765C261.622 33.9308 261.865 35.3052 262.348 36.5972C262.834 37.8908 263.503 39.0215 264.361 39.9911C265.217 40.9606 266.252 41.7289 267.463 42.2946C268.676 42.8607 270.009 43.1428 271.464 43.1428C273.404 43.1428 275.043 42.7874 276.384 42.0762C277.726 41.366 279.06 40.396 280.385 39.1671L285.136 43.9672C284.263 44.9049 283.357 45.7455 282.421 46.4881C281.483 47.2322 280.457 47.8701 279.342 48.4039C278.227 48.9367 277.006 49.3415 275.682 49.6155C274.356 49.89 272.869 50.028 271.222 50.028Z" fill="white" fill-opacity="0.5"/>
<path d="M293.924 15.5078H319.474V22.1504H301.294V29.0351H317.293V35.6772H301.294V42.8046H319.718V49.4466H293.924V15.5078Z" fill="white" fill-opacity="0.5"/>
</g>
<defs>
<clipPath id="clip0_1_632">
<rect width="319.474" height="64.0001" fill="white"/>
</clipPath>
</defs>
</svg>
