<svg width="255" height="80" viewBox="0 0 255 80" fill="none" xmlns="http://www.w3.org/2000/svg">
<g clip-path="url(#clip0_1_633)">
<path fill-rule="evenodd" clip-rule="evenodd" d="M84.896 38.6432C84.5852 35.0592 81.8423 31.7872 78.0652 31.7872C74.288 31.7872 71.5977 35.0592 71.2359 38.6432H84.8944H84.896ZM86.4467 39.3552C86.445 39.5533 86.3652 39.7426 86.2249 39.8817C86.0845 40.0209 85.8949 40.0985 85.6976 40.0976H71.2359C71.5977 43.6832 74.288 46.9552 78.0652 46.9552C80.6518 46.9552 82.5675 45.968 84.0162 43.8896C84.2266 43.6064 84.5342 43.4208 84.9374 43.592C85.0297 43.6334 85.1122 43.694 85.1794 43.7698C85.2465 43.8457 85.2969 43.935 85.327 44.0318C85.3572 44.1287 85.3664 44.2309 85.3542 44.3316C85.342 44.4323 85.3086 44.5293 85.2562 44.616C83.809 47.1632 80.9116 48.408 78.0652 48.408C73.2026 48.408 69.7346 44.0464 69.7346 39.3712C69.7346 34.696 73.2026 30.3328 78.0652 30.3328C82.9245 30.3328 86.4387 34.6848 86.4483 39.3552H86.4467ZM103.988 30.696C104.402 30.696 104.713 31.0608 104.713 31.424C104.713 31.84 104.402 32.1504 103.988 32.1504H100.107V47.4224C100.103 47.6138 100.025 47.7962 99.8903 47.9316C99.7555 48.0669 99.5738 48.1448 99.3832 48.1488C99.1923 48.1452 99.0102 48.0675 98.875 47.9321C98.7398 47.7967 98.6621 47.6141 98.658 47.4224V32.1504H94.9334C94.8377 32.1528 94.7424 32.1357 94.6535 32.1001C94.5645 32.0644 94.4837 32.0111 94.4159 31.9431C94.3481 31.8752 94.2947 31.7942 94.259 31.705C94.2233 31.6157 94.2061 31.5202 94.2083 31.424C94.2083 31.0608 94.519 30.696 94.9334 30.696H98.658V25.1056C98.658 24.7536 98.8971 24.4272 99.2429 24.3712C99.7242 24.2912 100.107 24.6256 100.107 25.0864V30.696H103.988ZM127.632 38.072V47.32C127.632 47.7344 127.271 48.0448 126.907 48.0448C126.812 48.047 126.717 48.0297 126.628 47.994C126.539 47.9583 126.458 47.9049 126.391 47.837C126.323 47.7691 126.27 47.6881 126.234 47.599C126.199 47.5099 126.181 47.4144 126.184 47.3184V38.072C126.184 34.9552 124.424 31.8384 120.958 31.8384C116.508 31.8384 114.594 35.7344 114.854 39.7344C114.854 39.8384 114.905 40.3056 114.905 40.3584V47.2992C114.905 47.6512 114.666 47.9776 114.321 48.0352C113.838 48.1136 113.456 47.7792 113.456 47.3184V16.9312C113.456 16.568 113.767 16.2048 114.18 16.2048C114.594 16.2048 114.905 16.568 114.905 16.9312V34.1248C116.148 31.8912 118.371 30.384 120.958 30.384C125.2 30.384 127.632 34.1248 127.632 38.072ZM152.002 38.6432C151.692 35.0592 148.949 31.7872 145.172 31.7872C141.394 31.7872 138.704 35.0592 138.342 38.6432H152.001H152.002ZM153.553 39.3552C153.551 39.5533 153.472 39.7426 153.331 39.8817C153.191 40.0209 153.001 40.0985 152.804 40.0976H138.342C138.704 43.6832 141.394 46.9552 145.172 46.9552C147.76 46.9552 149.674 45.968 151.123 43.8896C151.333 43.6064 151.641 43.4208 152.044 43.592C152.136 43.6334 152.219 43.694 152.286 43.7698C152.353 43.8457 152.403 43.935 152.433 44.0318C152.464 44.1287 152.473 44.2309 152.461 44.3316C152.448 44.4323 152.415 44.5293 152.363 44.616C150.915 47.1632 148.018 48.408 145.172 48.408C140.309 48.408 136.843 44.0464 136.843 39.3712C136.843 34.696 140.309 30.3328 145.172 30.3328C150.031 30.3328 153.545 34.6848 153.555 39.3552H153.553ZM171.301 31.3712C171.301 31.84 171.043 32.0992 170.629 32.1504C166.386 32.7744 164.472 36.2544 164.472 40.3056V47.248C164.472 47.6 164.233 47.9248 163.887 47.9824C163.406 48.0608 163.022 47.7264 163.022 47.2656V31.4416C163.022 31.0896 163.261 30.7648 163.607 30.7072C164.089 30.6288 164.472 30.9632 164.472 31.424V34.6448C165.661 32.6176 168.042 30.6976 170.525 30.6976C170.887 30.6976 171.301 30.9568 171.301 31.3712ZM193.497 38.6432C193.187 35.0592 190.445 31.7872 186.668 31.7872C182.891 31.7872 180.201 35.0592 179.839 38.6432H193.497ZM195.05 39.3552C195.048 39.5531 194.968 39.7422 194.827 39.8813C194.687 40.0203 194.498 40.0981 194.301 40.0976H179.839C180.201 43.6832 182.891 46.9552 186.668 46.9552C189.255 46.9552 191.169 45.968 192.618 43.8896C192.83 43.6064 193.137 43.4208 193.54 43.592C193.647 43.6382 193.74 43.7102 193.811 43.8016C193.883 43.8929 193.93 44.0007 193.95 44.1152C193.983 44.2882 193.95 44.4673 193.859 44.6176C192.41 47.1616 189.513 48.4096 186.668 48.4096C181.804 48.4096 178.339 44.0464 178.339 39.3696C178.339 34.696 181.804 30.3328 186.668 30.3328C191.526 30.3328 195.042 34.6848 195.051 39.3552H195.05ZM218.384 31.5552V47.4224C218.384 47.8384 218.022 48.1488 217.66 48.1488C217.564 48.1513 217.469 48.1341 217.38 48.0985C217.291 48.0629 217.21 48.0095 217.143 47.9415C217.075 47.8736 217.021 47.7926 216.986 47.7034C216.95 47.6141 216.933 47.5186 216.935 47.4224V44.4096C215.746 46.7984 213.625 48.5136 210.933 48.5136C206.639 48.5136 204.26 44.7728 204.26 40.8256V31.5296C204.26 31.1648 204.569 30.8 204.983 30.8C205.398 30.8 205.709 31.1648 205.709 31.528V40.8256C205.709 43.9424 207.467 47.0592 210.933 47.0592C215.797 47.0592 216.935 42.488 216.935 37.448V31.528C216.937 31.415 216.964 31.3039 217.015 31.2033C217.066 31.1027 217.14 31.0152 217.23 30.9478C217.321 30.8803 217.425 30.8346 217.536 30.8143C217.647 30.794 217.761 30.7995 217.869 30.8304C218.021 30.8794 218.153 30.9764 218.246 31.107C218.339 31.2376 218.387 31.3949 218.384 31.5552ZM254.963 38.0208V47.3168C254.963 47.7344 254.602 48.0448 254.24 48.0448C254.144 48.0473 254.049 48.0301 253.96 47.9945C253.871 47.9589 253.79 47.9055 253.722 47.8375C253.655 47.7696 253.601 47.6886 253.565 47.5994C253.53 47.5101 253.513 47.4146 253.515 47.3184V38.0208C253.515 34.904 251.757 31.84 248.289 31.84C243.944 31.84 242.288 36.5136 242.288 40.1504V47.3184C242.288 47.7344 241.927 48.0448 241.563 48.0448C241.468 48.0473 241.372 48.0301 241.283 47.9945C241.195 47.9588 241.114 47.9054 241.046 47.8375C240.979 47.7695 240.925 47.6885 240.89 47.5993C240.854 47.51 240.837 47.4145 240.84 47.3184V38.0208C240.84 34.904 239.08 31.84 235.614 31.84C231.215 31.84 229.404 35.32 229.559 39.9424C229.559 40.0464 229.612 40.2544 229.559 40.3056V47.3008C229.559 47.6528 229.322 47.976 228.976 48.0336C228.493 48.1136 228.11 47.7776 228.11 47.3184V31.4432C228.11 31.0912 228.349 30.7648 228.695 30.7072C229.177 30.6288 229.559 30.9632 229.559 31.424V34.072C230.802 31.84 233.027 30.3856 235.615 30.3856C238.562 30.3856 240.84 32.2544 241.77 35.008C242.959 32.3072 245.288 30.384 248.289 30.384C252.531 30.384 254.963 34.072 254.963 38.0208Z" fill="white" fill-opacity="0.5"/>
<path fill-rule="evenodd" clip-rule="evenodd" d="M0.521194 40.904L24.6824 55.2432V0.656006L0.521194 40.904Z" fill="white" fill-opacity="0.5"/>
<path fill-rule="evenodd" clip-rule="evenodd" d="M24.6841 0.656006V55.2432L48.8453 40.904L24.6841 0.656006Z" fill="white" fill-opacity="0.5"/>
<path fill-rule="evenodd" clip-rule="evenodd" d="M24.684 29.8801L0.521194 40.9041L24.6824 55.2433L48.8453 40.9057L24.684 29.8801Z" fill="white" fill-opacity="0.5"/>
<path fill-rule="evenodd" clip-rule="evenodd" d="M24.684 29.8801L0.521194 40.9041L24.6824 55.2433L24.684 29.8801Z" fill="white" fill-opacity="0.5"/>
<path fill-rule="evenodd" clip-rule="evenodd" d="M0.521194 45.5039L24.6824 79.6863V59.8351L0.521194 45.5039Z" fill="white" fill-opacity="0.5"/>
<path fill-rule="evenodd" clip-rule="evenodd" d="M24.6841 59.8351V79.6879L48.8613 45.5039L24.6841 59.8351Z" fill="white" fill-opacity="0.5"/>
</g>
<defs>
<clipPath id="clip0_1_633">
<rect width="255" height="80" fill="white"/>
</clipPath>
</defs>
</svg>
