<svg width="423" height="64" viewBox="0 0 423 64" fill="none" xmlns="http://www.w3.org/2000/svg">
<path d="M113.768 43.3485V33.0508C113.768 27.7221 109.458 23.4119 104.069 23.4119H103.649C101.554 23.4119 99.4584 24.1302 98.4408 25.3876V13.1739C98.4408 11.6763 97.3031 10.8989 96.1654 10.8989C95.0277 10.8989 93.8904 11.6768 93.8904 13.1739V50.832C93.8904 52.2691 95.0282 52.9874 96.1654 52.9874C97.1835 52.9874 98.2011 52.3882 98.3808 51.1924C99.2187 52.0298 100.955 52.9874 103.529 52.9874H104.068C109.397 52.9874 113.768 48.6772 113.768 43.3485ZM109.218 43.3485C109.218 46.1625 106.943 48.4379 104.069 48.4379H103.53C100.836 48.4379 98.4413 46.6415 98.4413 43.7078V32.5718C98.4413 29.8174 100.836 27.9618 103.53 27.9618H104.069C106.943 27.9618 109.218 30.2373 109.218 33.0508V43.3485ZM132.867 50.7119C132.867 49.5747 132.148 48.4379 130.592 48.4379C128.736 48.3774 127.299 46.9408 127.299 45.0843V13.1739C127.299 11.6763 126.162 10.8989 125.024 10.8989C123.886 10.8989 122.749 11.6768 122.749 13.1739V45.0843C122.749 49.4546 126.221 52.9874 130.592 52.9874C132.148 52.9874 132.867 51.8496 132.867 50.7119ZM158.97 43.3485V33.0508C158.97 27.7221 154.66 23.4119 149.331 23.4119H148.732C143.403 23.4119 139.093 27.7221 139.093 33.0508V43.3485C139.093 48.6772 143.403 52.9874 148.732 52.9874H149.331C154.659 52.9874 158.97 48.6772 158.97 43.3485ZM154.42 43.3485C154.42 46.1625 152.145 48.4379 149.331 48.4379H148.792C145.918 48.4379 143.643 46.1625 143.643 43.3485V33.0508C143.643 30.2373 145.918 27.9618 148.732 27.9618H149.331C152.145 27.9618 154.42 30.2373 154.42 33.0508V43.3485ZM186.569 43.3485C186.569 41.7923 185.432 41.0139 184.295 41.0139C183.217 41.0139 182.079 41.7923 182.02 43.3485C181.9 46.1625 179.744 48.4379 176.931 48.4379H176.392C173.518 48.4379 171.243 46.1625 171.243 43.3485V33.0508C171.243 30.2373 173.518 27.9618 176.332 27.9618H176.93C179.744 27.9618 181.899 30.0571 182.019 33.1104C182.079 34.608 183.217 35.3263 184.294 35.3263C185.432 35.3263 186.569 34.5475 186.569 33.0508C186.569 27.7221 182.199 23.4119 176.93 23.4119H176.331C171.063 23.4119 166.692 27.6625 166.692 33.0508V43.3485C166.692 48.6772 171.003 52.9874 176.331 52.9874H176.93C182.259 52.9874 186.569 48.6772 186.569 43.3485ZM215.247 50.7119C215.247 50.353 215.187 49.9346 214.948 49.5747L206.745 35.2057L214.169 27.3031C214.649 26.8241 214.828 26.2855 214.828 25.7465C214.828 24.5482 213.809 23.4114 212.493 23.4114C211.954 23.4114 211.356 23.6502 210.876 24.1898L199.501 36.2833V13.1739C199.501 11.6763 198.363 10.8989 197.226 10.8989C196.088 10.8989 194.951 11.6768 194.951 13.1739V50.7119C194.951 52.209 196.088 52.9874 197.226 52.9874C198.363 52.9874 199.501 52.209 199.501 50.7119V42.9881L203.512 38.6779L210.996 51.7891C211.475 52.6285 212.193 52.9874 212.912 52.9874C214.289 52.9874 215.247 51.9092 215.247 50.7119ZM241.11 43.3485C241.11 41.7923 239.972 41.0139 238.835 41.0139C237.758 41.0139 236.619 41.7923 236.559 43.3485C236.44 46.1625 234.285 48.4379 231.471 48.4379H230.931C228.058 48.4379 225.783 46.1625 225.783 43.3485V33.0508C225.783 30.2373 228.058 27.9618 230.872 27.9618H231.471C234.285 27.9618 236.44 30.0571 236.559 33.1104C236.619 34.608 237.758 35.3263 238.835 35.3263C239.973 35.3263 241.11 34.5475 241.11 33.0508C241.11 27.7221 236.74 23.4119 231.471 23.4119H230.872C225.604 23.4119 221.233 27.6625 221.233 33.0508V43.3485C221.233 48.6772 225.544 52.9874 230.872 52.9874H231.471C236.8 52.9874 241.11 48.6772 241.11 43.3485ZM269.369 50.7119V33.0508C269.369 27.7221 265.058 23.4119 259.729 23.4119H259.25C257.155 23.4119 255.059 24.1302 254.04 25.2079V13.1739C254.04 11.6763 252.904 10.8989 251.767 10.8989C250.629 10.8989 249.492 11.6768 249.492 13.1739V50.7119C249.492 52.209 250.63 52.9874 251.767 52.9874C252.904 52.9874 254.04 52.209 254.04 50.7119V32.7515C254.04 29.6377 256.736 27.9618 259.491 27.9618C262.124 27.9618 264.818 29.5786 264.818 33.0508V50.7119C264.818 52.209 265.956 52.9874 267.093 52.9874C268.231 52.9874 269.369 52.209 269.369 50.7119ZM299.304 50.6538C299.304 49.6948 298.705 48.7368 297.388 48.4975C296.31 48.3183 295.831 47.5986 295.831 46.5214V32.6309C295.831 27.4823 291.76 23.4114 286.431 23.4114H286.012C282.839 23.4114 279.007 24.6688 277.091 28.9794C276.912 29.3383 276.852 29.6972 276.852 30.0571C276.852 31.3145 277.99 32.1524 279.127 32.1524C279.906 32.1524 280.684 31.7935 281.163 30.9546C282.3 28.979 283.558 27.9614 286.012 27.9614H286.432C289.066 27.9614 291.281 29.2788 291.281 32.8101C291.281 33.1099 291.281 33.5889 291.102 33.8282C289.666 35.8644 276.374 34.1871 275.955 43.6468V44.3651C275.955 49.9341 280.744 52.9869 285.594 52.9869H286.133C288.587 52.9869 290.863 52.0889 292.599 50.5933C293.377 51.7305 294.635 52.6285 296.67 52.9273C296.79 52.9869 296.969 52.9869 297.09 52.9869C298.525 52.9874 299.304 51.8496 299.304 50.6538ZM291.281 43.3485C291.281 46.1625 288.946 48.4379 286.133 48.4379H285.593C282.54 48.4379 280.504 46.8212 280.504 44.2464V43.7669C280.684 39.5759 286.851 39.8161 291.281 38.6188V43.3485ZM311.038 50.7119V25.6869C311.038 24.1898 309.9 23.4119 308.763 23.4119C307.626 23.4119 306.488 24.1903 306.488 25.6869V50.7119C306.488 52.209 307.626 52.9874 308.763 52.9874C309.9 52.9874 311.038 52.209 311.038 50.7119ZM340.493 50.7119V33.0508C340.493 26.4647 336.003 23.4119 330.914 23.4119H330.375C328.279 23.4119 326.304 24.1302 325.226 25.2079C324.988 24.0096 323.968 23.4119 322.951 23.4119C321.753 23.4119 320.616 24.2498 320.616 25.6869V50.7119C320.616 52.209 321.754 52.9874 322.892 52.9874C324.029 52.9874 325.167 52.209 325.167 50.7119V33.0508C325.167 30.2373 327.502 27.9618 330.315 27.9618H330.854C333.728 27.9618 336.003 30.2373 336.003 33.0508V50.7119C336.003 52.209 337.141 52.9874 338.278 52.9874C339.416 52.9874 340.493 52.209 340.493 50.7119ZM363.988 50.7119V25.6869C363.988 24.1898 362.85 23.4119 361.712 23.4119C360.575 23.4119 359.438 24.1903 359.438 25.6869V50.7119C359.438 52.209 360.576 52.9874 361.712 52.9874C362.85 52.9874 363.988 52.209 363.988 50.7119ZM392.784 43.3485V33.0508C392.784 27.7221 388.474 23.4119 383.146 23.4119H382.547C377.218 23.4119 372.908 27.7221 372.908 33.0508V43.3485C372.908 48.6772 377.218 52.9874 382.547 52.9874H383.146C388.474 52.9874 392.784 48.6772 392.784 43.3485ZM388.235 43.3485C388.235 46.1625 385.96 48.4379 383.146 48.4379H382.607C379.732 48.4379 377.458 46.1625 377.458 43.3485V33.0508C377.458 30.2373 379.732 27.9618 382.547 27.9618H383.146C385.96 27.9618 388.235 30.2373 388.235 33.0508V43.3485Z" fill="white" fill-opacity="0.5"/>
<path d="M48.8071 30.4819C47.4207 30.4819 46.2934 31.6098 46.2934 32.9957C46.2934 34.3815 47.4212 35.5089 48.8071 35.5089C50.1929 35.5089 51.3213 34.3815 51.3213 32.9957C51.3213 31.6098 50.1934 30.4819 48.8071 30.4819Z" fill="white" fill-opacity="0.5"/>
<path d="M60.4301 23.5073C59.0438 23.5073 57.9174 24.6352 57.9174 26.0211C57.9174 27.4074 59.0442 28.5343 60.4301 28.5343C61.8159 28.5343 62.9448 27.4069 62.9448 26.0211C62.9453 24.6352 61.8164 23.5073 60.4301 23.5073Z" fill="white" fill-opacity="0.5"/>
<path d="M72.0535 16.5337C70.6677 16.5337 69.5398 17.6611 69.5398 19.0469C69.5398 20.4333 70.6677 21.5621 72.0535 21.5621C73.4404 21.5621 74.5673 20.4338 74.5673 19.0469C74.5673 17.6611 73.4404 16.5337 72.0535 16.5337Z" fill="white" fill-opacity="0.5"/>
<path d="M37.1834 9.55933C35.7975 9.55933 34.6696 10.6872 34.6696 12.0735C34.6696 13.4594 35.7975 14.5868 37.1834 14.5868C38.5697 14.5868 39.6976 13.4594 39.6976 12.0735C39.6976 10.6872 38.5702 9.55933 37.1834 9.55933Z" fill="white" fill-opacity="0.5"/>
<path d="M48.8074 2.58521C47.421 2.58521 46.2936 3.71358 46.2936 5.09942C46.2936 6.48576 47.4215 7.61364 48.8074 7.61364C50.1932 7.61364 51.3216 6.48576 51.3216 5.09942C51.3216 3.71358 50.1937 2.58521 48.8074 2.58521Z" fill="white" fill-opacity="0.5"/>
<path d="M48.8071 16.5337C47.4207 16.5337 46.2934 17.6611 46.2934 19.0469C46.2934 20.4333 47.4212 21.5621 48.8071 21.5621C50.1929 21.5621 51.3213 20.4338 51.3213 19.0469C51.3213 17.6611 50.1934 16.5337 48.8071 16.5337Z" fill="white" fill-opacity="0.5"/>
<path d="M60.4301 9.55933C59.0438 9.55933 57.9174 10.6872 57.9174 12.0735C57.9174 13.4594 59.0442 14.5868 60.4301 14.5868C61.8159 14.5868 62.9448 13.4594 62.9448 12.0735C62.9453 10.6872 61.8164 9.55933 60.4301 9.55933Z" fill="white" fill-opacity="0.5"/>
<path d="M60.4301 37.4558C59.0438 37.4558 57.9174 38.5832 57.9174 39.9686C57.9174 41.3549 59.0442 42.4823 60.4301 42.4823C61.8159 42.4823 62.9448 41.3549 62.9448 39.9686C62.9453 38.5832 61.8164 37.4558 60.4301 37.4558Z" fill="white" fill-opacity="0.5"/>
<path d="M72.0535 30.4819C70.6677 30.4819 69.5398 31.6098 69.5398 32.9957C69.5398 34.3815 70.6677 35.5089 72.0535 35.5089C73.4404 35.5089 74.5673 34.3815 74.5673 32.9957C74.5673 31.6098 73.4404 30.4819 72.0535 30.4819Z" fill="white" fill-opacity="0.5"/>
<path d="M60.4301 51.4036C59.0438 51.4036 57.9174 52.5309 57.9174 53.9173C57.9174 55.3031 59.0442 56.4305 60.4301 56.4305C61.8159 56.4305 62.9448 55.3031 62.9448 53.9173C62.9453 52.5309 61.8164 51.4036 60.4301 51.4036Z" fill="white" fill-opacity="0.5"/>
<path d="M72.0535 44.4294C70.6677 44.4294 69.5398 45.5568 69.5398 46.9432C69.5398 48.329 70.6677 49.4564 72.0535 49.4564C73.4404 49.4564 74.5673 48.329 74.5673 46.9432C74.5673 45.5568 73.4404 44.4294 72.0535 44.4294Z" fill="white" fill-opacity="0.5"/>
<path d="M48.8071 58.3774C47.4207 58.3774 46.2934 59.5053 46.2934 60.8912C46.2934 62.2765 47.4212 63.4044 48.8071 63.4044C50.1929 63.4044 51.3213 62.2765 51.3213 60.8912C51.3213 59.5053 50.1934 58.3774 48.8071 58.3774Z" fill="white" fill-opacity="0.5"/>
<path d="M48.8071 44.4294C47.4207 44.4294 46.2934 45.5568 46.2934 46.9432C46.2934 48.329 47.4212 49.4564 48.8071 49.4564C50.1929 49.4564 51.3213 48.329 51.3213 46.9432C51.3213 45.5568 50.1934 44.4294 48.8071 44.4294Z" fill="white" fill-opacity="0.5"/>
<path d="M37.1834 23.5073C35.7975 23.5073 34.6696 24.6352 34.6696 26.0211C34.6696 27.4074 35.7975 28.5343 37.1834 28.5343C38.5697 28.5343 39.6976 27.4069 39.6976 26.0211C39.6976 24.6352 38.5702 23.5073 37.1834 23.5073Z" fill="white" fill-opacity="0.5"/>
<path d="M37.1834 51.4036C35.7975 51.4036 34.6696 52.5309 34.6696 53.9173C34.6696 55.3031 35.7975 56.4305 37.1834 56.4305C38.5697 56.4305 39.6976 55.3031 39.6976 53.9173C39.6976 52.5309 38.5702 51.4036 37.1834 51.4036Z" fill="white" fill-opacity="0.5"/>
<path d="M37.1834 37.4558C35.7975 37.4558 34.6696 38.5832 34.6696 39.9686C34.6696 41.3549 35.7975 42.4823 37.1834 42.4823C38.5697 42.4823 39.6976 41.3549 39.6976 39.9686C39.6976 38.5832 38.5702 37.4558 37.1834 37.4558Z" fill="white" fill-opacity="0.5"/>
<path d="M25.5604 16.5337C24.1741 16.5337 23.0472 17.6611 23.0472 19.0469C23.0472 20.4333 24.1746 21.5621 25.5604 21.5621C26.9463 21.5621 28.0746 20.4338 28.0746 19.0469C28.0746 17.6611 26.9463 16.5337 25.5604 16.5337Z" fill="white" fill-opacity="0.5"/>
<path d="M25.5604 44.4294C24.1741 44.4294 23.0472 45.5568 23.0472 46.9432C23.0472 48.329 24.1746 49.4564 25.5604 49.4564C26.9463 49.4564 28.0746 48.329 28.0746 46.9432C28.0746 45.5568 26.9463 44.4294 25.5604 44.4294Z" fill="white" fill-opacity="0.5"/>
<path d="M25.5604 30.4817C24.1741 30.4817 23.0472 31.6096 23.0472 32.9954C23.0472 34.3813 24.1746 35.5086 25.5604 35.5086C26.9463 35.5086 28.0746 34.3813 28.0746 32.9954C28.0746 31.6096 26.9463 30.4817 25.5604 30.4817Z" fill="white" fill-opacity="0.5"/>
<path d="M308.726 10.7737C307.464 10.7737 306.437 11.7992 306.437 13.0605C306.437 14.3217 307.465 15.3477 308.726 15.3477C309.986 15.3477 311.013 14.3217 311.013 13.0605C311.013 11.7992 309.987 10.7737 308.726 10.7737Z" fill="white" fill-opacity="0.5"/>
<path d="M361.693 10.7737C360.432 10.7737 359.405 11.7992 359.405 13.0605C359.405 14.3217 360.432 15.3477 361.693 15.3477C362.955 15.3477 363.98 14.3217 363.98 13.0605C363.981 11.7992 362.955 10.7737 361.693 10.7737Z" fill="white" fill-opacity="0.5"/>
<path d="M349.694 48.6013C348.44 48.6013 347.418 49.6214 347.418 50.8758C347.418 52.1302 348.44 53.1512 349.694 53.1512C350.949 53.1512 351.969 52.1302 351.969 50.8758C351.969 49.6214 350.949 48.6013 349.694 48.6013Z" fill="white" fill-opacity="0.5"/>
</svg>
